# xmcd
#
# Track frame offsets:
#	150
#	25477
#	42540
#	59351
#	83481
#	105449
#	118753
#	146857
#	166216
#	181717
#	202755
#	219270
#
# Disc length: 3162 seconds
#
# Revision: 1
# Processed by: cddbd v1.5.2PL0 Copyright (c) Steve Scherf et al.
# Submitted via: audiograbber 1.83.01
#
DISCID=9d0c580c
DTITLE=Алексей Лысиков - Львиная доля
DYEAR=2008
DGENRE=Blues
TTITLE0=Мальвина
TTITLE1=Это не кино
TTITLE2=Уезжая уезжать
TTITLE3=Острослов
TTITLE4=Февраль
TTITLE5=Роман
TTITLE6=Робин-Бобин
TTITLE7=Не густо-не пусто
TTITLE8=Дорога домой (сл. и муз. В. Корчуганова)
TTITLE9=Давай бросим всё
TTITLE10=Балалайка (сл.,муз. и исполнение К.Федулова и А.Лысиков)
TTITLE11=Дениска (сл.,муз. и исполнение К.Федулова и А.Лысиков)
EXTD=
EXTT0=
EXTT1=
EXTT2=
EXTT3=
EXTT4=
EXTT5=
EXTT6=
EXTT7=
EXTT8=
EXTT9=
EXTT10=
EXTT11=
PLAYORDER=
